<svg width="286" height="115" viewBox="0 0 286 115" fill="none" xmlns="http://www.w3.org/2000/svg">
<path d="M140.197 51.3085V76.5169H149.282V51.04C149.282 48.6298 151.234 46.6754 153.64 46.6754H166.595V37.5757H153.908C146.336 37.5757 140.197 43.7239 140.197 51.3085Z" fill="#005AAA"/>
<path d="M199.214 37.5754L190.14 54.9142L180.111 37.5754H169.618L185.137 64.421L184.165 66.168C183.665 67.1175 182.689 67.7076 181.62 67.7076H175.196V76.8073H181.62C186.072 76.8073 190.127 74.3571 192.202 70.4106L209.533 37.5754H199.214Z" fill="#005AAA"/>
<path d="M218.772 60.3102L224.375 49.5854C225.214 47.8174 227.019 46.6761 228.973 46.6761H231.68C232.31 46.6761 232.821 47.1874 232.821 47.8196V60.3102H218.772ZM235.052 37.5752H228.973C223.533 37.5752 218.506 40.7563 216.248 45.5225L200.045 76.5353H210.295L214.017 69.4099H232.821V76.5353H241.908V44.4422C241.908 40.6499 238.838 37.5752 235.052 37.5752Z" fill="#005AAA"/>
<path d="M278.704 37.5754H258.132C254.346 37.5754 251.276 40.6501 251.276 44.4424V76.4491H260.362V47.811C260.362 47.1843 260.869 46.6752 261.495 46.6752H275.341C275.966 46.6752 276.473 47.1843 276.473 47.811V76.4313H285.56V44.4424C285.56 40.6501 282.49 37.5754 278.704 37.5754Z" fill="#005AAA"/>
<path d="M53.8147 41.7236C41.1893 41.8844 0 43.4783 0 57.1923C0 71.9344 47.5635 72.6809 57.0992 72.6809C66.6338 72.6809 114.197 71.9344 114.197 57.1923C114.197 50.6547 105.615 47.6611 99.1611 45.9784C92.1215 44.1427 82.6123 42.8117 72.1132 42.1617C72.2848 44.9536 72.4055 47.823 72.4797 50.7401C91.6652 51.9924 101.812 55.2335 104.932 57.2034C100.707 59.9375 84.4174 64.1347 57.0992 64.1347C29.7323 64.1347 13.4337 59.922 9.24227 57.1889C13.2211 54.5735 28.131 50.5982 53.9232 50.2676C56.2797 50.2388 58.1656 48.3011 58.1346 45.9407C58.1047 43.6003 56.2011 41.7225 53.8701 41.7225C53.8512 41.7225 53.8335 41.7225 53.8147 41.7236Z" fill="url(#paint0_linear_528_51907)"/>
<path d="M41.6346 57.1918C41.6346 66.7408 42.3799 114.381 57.0993 114.381C63.6229 114.381 66.6118 105.792 68.2917 99.3297C70.1255 92.2753 71.4555 82.7419 72.1055 72.2179C68.9439 72.4076 66.0204 72.5219 63.541 72.5895C62.2907 91.8106 59.0539 101.977 57.0871 105.103C54.3574 100.869 50.166 84.5532 50.166 57.1918C50.166 29.8016 54.3663 13.48 57.0949 9.26736C59.715 13.3547 63.7979 28.9365 64.0216 55.04C64.0415 57.3881 65.9474 59.2771 68.2873 59.2771H68.3249C70.6803 59.256 72.574 57.326 72.554 54.9679C72.4344 41.0088 71.1831 27.9294 69.0303 18.1408C66.3084 5.76456 62.5167 8.97787e-05 57.0993 8.97787e-05C42.3799 8.97787e-05 41.6346 47.6406 41.6346 57.1918" fill="url(#paint1_linear_528_51907)"/>
<defs>
<linearGradient id="paint0_linear_528_51907" x1="0.000147283" y1="57.2019" x2="114.197" y2="57.2019" gradientUnits="userSpaceOnUse">
<stop stop-color="#45C3F3"/>
<stop offset="0.5" stop-color="#1671C2"/>
<stop offset="0.959876" stop-color="#2056AE"/>
<stop offset="1" stop-color="#2056AE"/>
</linearGradient>
<linearGradient id="paint1_linear_528_51907" x1="57.0941" y1="114.382" x2="57.0941" y2="0.000211125" gradientUnits="userSpaceOnUse">
<stop stop-color="#2056AE"/>
<stop offset="0.25" stop-color="#2056AE"/>
<stop offset="0.280093" stop-color="#2056AE"/>
<stop offset="0.625" stop-color="#A32B9B"/>
<stop offset="1" stop-color="#ED1443"/>
</linearGradient>
</defs>
</svg>
