<svg width="319" height="115" viewBox="0 0 319 115" fill="none" xmlns="http://www.w3.org/2000/svg">
<path d="M144.613 25.2383L151.615 14.2812H153.5V28.5H151.615V17.5332L144.613 28.5H142.738V14.2812H144.613V25.2383ZM164.222 22.5138V23.9785H158.636V22.5138H164.222ZM159.017 17.9336V28.5H157.211V17.9336H159.017ZM165.687 17.9336V28.5H163.871V17.9336H165.687ZM173.226 27.2109C173.655 27.2109 174.053 27.123 174.417 26.9473C174.782 26.7715 175.081 26.5306 175.316 26.2246C175.55 25.9121 175.683 25.5573 175.716 25.1602H177.435C177.402 25.7852 177.191 26.3678 176.8 26.9082C176.416 27.4421 175.911 27.8751 175.286 28.2071C174.661 28.5327 173.974 28.6953 173.226 28.6953C172.432 28.6953 171.738 28.5553 171.146 28.2754C170.56 27.9954 170.071 27.6113 169.681 27.123C169.297 26.6348 169.007 26.0749 168.812 25.4434C168.623 24.8053 168.529 24.1315 168.529 23.4219V23.0117C168.529 22.3021 168.623 21.6315 168.812 21C169.007 20.362 169.297 19.7988 169.681 19.3105C170.071 18.8223 170.56 18.4382 171.146 18.1582C171.738 17.8783 172.432 17.7383 173.226 17.7383C174.053 17.7383 174.775 17.9076 175.394 18.2461C176.012 18.5781 176.497 19.0339 176.849 19.6133C177.207 20.1862 177.402 20.8373 177.435 21.5665H175.716C175.683 21.1303 175.56 20.7363 175.345 20.3848C175.137 20.0332 174.85 19.7534 174.486 19.545C174.127 19.3302 173.708 19.2227 173.226 19.2227C172.672 19.2227 172.207 19.3334 171.829 19.5548C171.458 19.7696 171.162 20.0625 170.941 20.4336C170.726 20.7982 170.57 21.2052 170.472 21.6544C170.381 22.0971 170.335 22.5495 170.335 23.0117V23.4219C170.335 23.8841 170.381 24.3399 170.472 24.7892C170.563 25.2384 170.716 25.6452 170.931 26.0098C171.152 26.3743 171.448 26.6674 171.82 26.8888C172.197 27.1036 172.666 27.2109 173.226 27.2109ZM184.173 17.9336V28.5H182.356V17.9336H184.173ZM187.718 17.9336V19.3984H178.88V17.9336H187.718ZM191.848 25.6388L196.721 17.9336H198.537V28.5H196.721V20.795L191.848 28.5H190.051V17.9336H191.848V25.6388ZM206.145 17.9336V28.5H204.328V17.9336H206.145ZM209.689 17.9336V19.3984H200.852V17.9336H209.689ZM214.953 27.4062L217.892 17.9336H219.826L215.588 30.1309C215.49 30.3913 215.36 30.6712 215.197 30.9707C215.041 31.2767 214.839 31.5664 214.591 31.8398C214.344 32.1133 214.045 32.3346 213.693 32.5039C213.348 32.6797 212.935 32.7677 212.453 32.7677C212.31 32.7677 212.127 32.748 211.906 32.709C211.685 32.6699 211.528 32.6375 211.437 32.6114L211.427 31.1465C211.479 31.153 211.561 31.1595 211.671 31.166C211.789 31.179 211.87 31.1855 211.916 31.1855C212.326 31.1855 212.674 31.1303 212.961 31.0196C213.247 30.9155 213.488 30.7364 213.683 30.4825C213.885 30.2351 214.058 29.8933 214.201 29.4571L214.953 27.4062ZM212.795 17.9336L215.539 26.1367L216.007 28.041L214.709 28.7051L210.822 17.9336H212.795ZM226.163 17.9336V28.5H224.347V17.9336H226.163ZM229.708 17.9336V19.3984H220.87V17.9336H229.708ZM149.545 46.5137V47.9785H143.959V46.5137H149.545ZM144.34 41.9337V52.5H142.533V41.9337H144.34ZM151.01 41.9337V52.5H149.193V41.9337H151.01ZM158.705 52.6954C157.969 52.6954 157.302 52.5716 156.703 52.3242C156.11 52.0703 155.599 51.7155 155.17 51.2598C154.746 50.804 154.421 50.2637 154.193 49.6387C153.965 49.0137 153.851 48.3301 153.851 47.5879V47.1777C153.851 46.3184 153.978 45.5535 154.232 44.8829C154.486 44.2058 154.831 43.6329 155.267 43.1642C155.703 42.6954 156.198 42.3406 156.752 42.0997C157.305 41.8588 157.878 41.7383 158.47 41.7383C159.226 41.7383 159.877 41.8685 160.423 42.1289C160.977 42.3893 161.429 42.7539 161.781 43.2227C162.132 43.6849 162.393 44.2318 162.562 44.8633C162.731 45.4883 162.816 46.172 162.816 46.9142V47.7247H154.925V46.25H161.009V46.1133C160.983 45.6445 160.886 45.1889 160.716 44.7462C160.554 44.3035 160.293 43.9389 159.935 43.6524C159.577 43.366 159.089 43.2227 158.47 43.2227C158.06 43.2227 157.683 43.3106 157.337 43.4864C156.992 43.6557 156.696 43.9096 156.449 44.2481C156.201 44.5867 156.009 45 155.873 45.4883C155.736 45.9766 155.668 46.5397 155.668 47.1777V47.5879C155.668 48.0892 155.736 48.5612 155.873 49.0039C156.016 49.4401 156.221 49.8243 156.488 50.1562C156.761 50.4884 157.09 50.7487 157.474 50.9375C157.865 51.1263 158.308 51.2207 158.802 51.2207C159.44 51.2207 159.981 51.0906 160.423 50.8302C160.866 50.5698 161.254 50.2214 161.586 49.7852L162.679 50.6544C162.451 50.9994 162.162 51.3281 161.81 51.6406C161.459 51.9531 161.026 52.2071 160.511 52.4024C160.004 52.5978 159.401 52.6954 158.705 52.6954ZM172.366 41.9337V43.4277H167.025V41.9337H172.366ZM167.288 41.9337V52.5H165.482V41.9337H167.288ZM173.968 41.9337V52.5H172.152V41.9337H173.968ZM179.075 43.9649V56.5625H177.259V41.9337H178.919L179.075 43.9649ZM186.194 47.1289V47.334C186.194 48.1022 186.103 48.8151 185.921 49.4727C185.738 50.1237 185.471 50.6902 185.12 51.172C184.775 51.6537 184.348 52.028 183.841 52.2949C183.333 52.5618 182.75 52.6954 182.093 52.6954C181.422 52.6954 180.83 52.5846 180.315 52.3633C179.801 52.1419 179.365 51.8197 179.007 51.3965C178.649 50.9733 178.362 50.4656 178.147 49.8731C177.939 49.2807 177.796 48.6134 177.718 47.8712V46.7774C177.796 45.9962 177.942 45.2962 178.157 44.6777C178.372 44.0592 178.655 43.5319 179.007 43.0957C179.365 42.653 179.798 42.3178 180.305 42.0899C180.813 41.8556 181.399 41.7383 182.063 41.7383C182.727 41.7383 183.317 41.8685 183.831 42.1289C184.345 42.3828 184.778 42.7474 185.13 43.2227C185.481 43.6979 185.745 44.2676 185.921 44.9316C186.103 45.5892 186.194 46.3216 186.194 47.1289ZM184.378 47.334V47.1289C184.378 46.6016 184.322 46.1069 184.212 45.6446C184.101 45.1759 183.929 44.7657 183.694 44.4142C183.466 44.0561 183.173 43.776 182.815 43.5742C182.457 43.3659 182.031 43.2617 181.536 43.2617C181.08 43.2617 180.683 43.3399 180.345 43.4962C180.013 43.6524 179.729 43.864 179.495 44.131C179.261 44.3914 179.068 44.6909 178.919 45.0294C178.776 45.3614 178.668 45.7064 178.596 46.0645V48.5938C178.727 49.0495 178.909 49.4793 179.143 49.8829C179.378 50.28 179.69 50.6023 180.081 50.8497C180.471 51.0906 180.963 51.2109 181.555 51.2109C182.044 51.2109 182.464 51.11 182.815 50.9082C183.173 50.6999 183.466 50.4168 183.694 50.0587C183.929 49.7006 184.101 49.2904 184.212 48.8281C184.322 48.3594 184.378 47.8613 184.378 47.334ZM193.284 52.6954C192.548 52.6954 191.881 52.5716 191.282 52.3242C190.689 52.0703 190.178 51.7155 189.748 51.2598C189.325 50.804 189 50.2637 188.772 49.6387C188.544 49.0137 188.43 48.3301 188.43 47.5879V47.1777C188.43 46.3184 188.557 45.5535 188.811 44.8829C189.065 44.2058 189.41 43.6329 189.846 43.1642C190.282 42.6954 190.777 42.3406 191.33 42.0997C191.884 41.8588 192.457 41.7383 193.049 41.7383C193.804 41.7383 194.455 41.8685 195.002 42.1289C195.556 42.3893 196.008 42.7539 196.36 43.2227C196.711 43.6849 196.972 44.2318 197.141 44.8633C197.31 45.4883 197.395 46.172 197.395 46.9142V47.7247H189.504V46.25H195.588V46.1133C195.562 45.6445 195.465 45.1889 195.295 44.7462C195.133 44.3035 194.872 43.9389 194.514 43.6524C194.156 43.366 193.668 43.2227 193.049 43.2227C192.639 43.2227 192.261 43.3106 191.916 43.4864C191.571 43.6557 191.275 43.9096 191.028 44.2481C190.78 44.5867 190.588 45 190.452 45.4883C190.315 45.9766 190.246 46.5397 190.246 47.1777V47.5879C190.246 48.0892 190.315 48.5612 190.452 49.0039C190.595 49.4401 190.8 49.8243 191.067 50.1562C191.34 50.4884 191.669 50.7487 192.053 50.9375C192.444 51.1263 192.886 51.2207 193.381 51.2207C194.019 51.2207 194.56 51.0906 195.002 50.8302C195.445 50.5698 195.832 50.2214 196.164 49.7852L197.258 50.6544C197.03 50.9994 196.741 51.3281 196.389 51.6406C196.037 51.9531 195.605 52.2071 195.09 52.4024C194.582 52.5978 193.98 52.6954 193.284 52.6954ZM201.711 43.9649V56.5625H199.895V41.9337H201.555L201.711 43.9649ZM208.83 47.1289V47.334C208.83 48.1022 208.739 48.8151 208.557 49.4727C208.374 50.1237 208.107 50.6902 207.756 51.172C207.411 51.6537 206.984 52.028 206.477 52.2949C205.969 52.5618 205.386 52.6954 204.729 52.6954C204.058 52.6954 203.465 52.5846 202.951 52.3633C202.437 52.1419 202.001 51.8197 201.643 51.3965C201.285 50.9733 200.998 50.4656 200.783 49.8731C200.575 49.2807 200.432 48.6134 200.354 47.8712V46.7774C200.432 45.9962 200.578 45.2962 200.793 44.6777C201.008 44.0592 201.291 43.5319 201.643 43.0957C202.001 42.653 202.434 42.3178 202.941 42.0899C203.449 41.8556 204.035 41.7383 204.699 41.7383C205.363 41.7383 205.952 41.8685 206.467 42.1289C206.981 42.3828 207.414 42.7474 207.766 43.2227C208.117 43.6979 208.381 44.2676 208.557 44.9316C208.739 45.5892 208.83 46.3216 208.83 47.1289ZM207.014 47.334V47.1289C207.014 46.6016 206.958 46.1069 206.848 45.6446C206.737 45.1759 206.564 44.7657 206.33 44.4142C206.102 44.0561 205.809 43.776 205.451 43.5742C205.093 43.3659 204.667 43.2617 204.172 43.2617C203.716 43.2617 203.319 43.3399 202.98 43.4962C202.648 43.6524 202.365 43.864 202.131 44.131C201.896 44.3914 201.704 44.6909 201.555 45.0294C201.411 45.3614 201.304 45.7064 201.232 46.0645V48.5938C201.363 49.0495 201.545 49.4793 201.779 49.8829C202.014 50.28 202.326 50.6023 202.717 50.8497C203.107 51.0906 203.599 51.2109 204.191 51.2109C204.68 51.2109 205.1 51.11 205.451 50.9082C205.809 50.6999 206.102 50.4168 206.33 50.0587C206.564 49.7006 206.737 49.2904 206.848 48.8281C206.958 48.3594 207.014 47.8613 207.014 47.334ZM213.019 45.5664H216.193C217.046 45.5664 217.765 45.7161 218.351 46.0156C218.937 46.3086 219.38 46.7156 219.679 47.2364C219.985 47.7508 220.138 48.3366 220.138 48.9941C220.138 49.4824 220.054 49.9415 219.884 50.3712C219.715 50.7944 219.461 51.1655 219.123 51.4845C218.791 51.8035 218.377 52.0541 217.882 52.2364C217.394 52.4122 216.831 52.5 216.193 52.5H211.701V41.9337H213.507V51.0156H216.193C216.714 51.0156 217.13 50.9212 217.443 50.7324C217.755 50.5436 217.98 50.2995 218.117 50C218.254 49.7005 218.322 49.388 218.322 49.0625C218.322 48.7435 218.254 48.431 218.117 48.125C217.98 47.819 217.755 47.5651 217.443 47.3633C217.13 47.1549 216.714 47.0508 216.193 47.0508H213.019V45.5664ZM223.898 41.9337V52.5H222.091V41.9337H223.898ZM232.423 47.8517H228.956L228.937 46.4062H231.769C232.329 46.4062 232.794 46.3509 233.165 46.2402C233.543 46.1296 233.826 45.9635 234.015 45.7422C234.204 45.5208 234.298 45.2475 234.298 44.922C234.298 44.6681 234.243 44.4467 234.132 44.2579C234.028 44.0626 233.868 43.9031 233.654 43.7794C233.439 43.6492 233.172 43.5548 232.853 43.4962C232.54 43.4311 232.172 43.3984 231.749 43.3984H229.435V52.5H227.628V41.9337H231.749C232.42 41.9337 233.022 41.9923 233.556 42.1095C234.096 42.2267 234.555 42.4056 234.933 42.6465C235.317 42.8809 235.61 43.1803 235.812 43.5449C236.014 43.9095 236.114 44.3392 236.114 44.834C236.114 45.153 236.049 45.4557 235.919 45.7422C235.789 46.0286 235.597 46.2826 235.343 46.5039C235.089 46.7253 234.777 46.9076 234.405 47.0508C234.034 47.1875 233.608 47.2754 233.126 47.3145L232.423 47.8517ZM232.423 52.5H228.302L229.2 51.0352H232.423C232.924 51.0352 233.341 50.9734 233.673 50.8497C234.005 50.7195 234.252 50.5371 234.415 50.3027C234.585 50.0618 234.669 49.7755 234.669 49.4435C234.669 49.1114 234.585 48.8281 234.415 48.5938C234.252 48.3529 234.005 48.1707 233.673 48.047C233.341 47.9168 232.924 47.8517 232.423 47.8517H229.679L229.698 46.4062H233.126L233.78 46.9531C234.36 46.9987 234.851 47.142 235.255 47.3829C235.659 47.6238 235.965 47.9297 236.173 48.3008C236.381 48.6654 236.486 49.0625 236.486 49.4922C236.486 49.987 236.391 50.4232 236.202 50.8008C236.02 51.1784 235.753 51.4942 235.402 51.7481C235.05 51.9955 234.624 52.1842 234.122 52.3145C233.621 52.4382 233.055 52.5 232.423 52.5ZM246.475 46.5137V47.9785H240.889V46.5137H246.475ZM241.27 41.9337V52.5H239.464V41.9337H241.27ZM247.94 41.9337V52.5H246.124V41.9337H247.94ZM250.772 47.334V47.1095C250.772 46.3478 250.883 45.6413 251.104 44.9902C251.325 44.3327 251.644 43.763 252.061 43.2812C252.478 42.793 252.982 42.4154 253.575 42.1484C254.167 41.875 254.831 41.7383 255.567 41.7383C256.309 41.7383 256.976 41.875 257.569 42.1484C258.168 42.4154 258.676 42.793 259.092 43.2812C259.515 43.763 259.838 44.3327 260.059 44.9902C260.28 45.6413 260.391 46.3478 260.391 47.1095V47.334C260.391 48.0957 260.28 48.8021 260.059 49.4531C259.838 50.1042 259.515 50.6739 259.092 51.1622C258.676 51.644 258.171 52.0215 257.579 52.2949C256.993 52.5618 256.329 52.6954 255.586 52.6954C254.844 52.6954 254.177 52.5618 253.584 52.2949C252.992 52.0215 252.484 51.644 252.061 51.1622C251.644 50.6739 251.325 50.1042 251.104 49.4531C250.883 48.8021 250.772 48.0957 250.772 47.334ZM252.579 47.1095V47.334C252.579 47.8613 252.64 48.3594 252.764 48.8281C252.888 49.2904 253.073 49.7006 253.321 50.0587C253.575 50.4168 253.89 50.6999 254.268 50.9082C254.646 51.11 255.085 51.2109 255.586 51.2109C256.081 51.2109 256.514 51.11 256.885 50.9082C257.263 50.6999 257.575 50.4168 257.823 50.0587C258.07 49.7006 258.256 49.2904 258.379 48.8281C258.51 48.3594 258.575 47.8613 258.575 47.334V47.1095C258.575 46.5886 258.51 46.097 258.379 45.6348C258.256 45.166 258.067 44.7527 257.813 44.3946C257.565 44.03 257.253 43.7435 256.875 43.5352C256.504 43.3268 256.068 43.2227 255.567 43.2227C255.072 43.2227 254.636 43.3268 254.258 43.5352C253.887 43.7435 253.575 44.03 253.321 44.3946C253.073 44.7527 252.888 45.166 252.764 45.6348C252.64 46.097 252.579 46.5886 252.579 47.1095ZM269.883 41.9337V43.4277H265V52.5H263.193V41.9337H269.883ZM271.181 47.334V47.1095C271.181 46.3478 271.292 45.6413 271.513 44.9902C271.735 44.3327 272.054 43.763 272.47 43.2812C272.887 42.793 273.392 42.4154 273.984 42.1484C274.576 41.875 275.24 41.7383 275.976 41.7383C276.718 41.7383 277.386 41.875 277.978 42.1484C278.577 42.4154 279.085 42.793 279.502 43.2812C279.925 43.763 280.247 44.3327 280.468 44.9902C280.69 45.6413 280.8 46.3478 280.8 47.1095V47.334C280.8 48.0957 280.69 48.8021 280.468 49.4531C280.247 50.1042 279.925 50.6739 279.502 51.1622C279.085 51.644 278.58 52.0215 277.988 52.2949C277.402 52.5618 276.738 52.6954 275.996 52.6954C275.254 52.6954 274.586 52.5618 273.994 52.2949C273.401 52.0215 272.893 51.644 272.47 51.1622C272.054 50.6739 271.735 50.1042 271.513 49.4531C271.292 48.8021 271.181 48.0957 271.181 47.334ZM272.988 47.1095V47.334C272.988 47.8613 273.05 48.3594 273.173 48.8281C273.297 49.2904 273.483 49.7006 273.73 50.0587C273.984 50.4168 274.3 50.6999 274.677 50.9082C275.055 51.11 275.494 51.2109 275.996 51.2109C276.49 51.2109 276.923 51.11 277.295 50.9082C277.672 50.6999 277.985 50.4168 278.232 50.0587C278.479 49.7006 278.665 49.2904 278.789 48.8281C278.919 48.3594 278.984 47.8613 278.984 47.334V47.1095C278.984 46.5886 278.919 46.097 278.789 45.6348C278.665 45.166 278.476 44.7527 278.222 44.3946C277.975 44.03 277.662 43.7435 277.285 43.5352C276.914 43.3268 276.477 43.2227 275.976 43.2227C275.481 43.2227 275.045 43.3268 274.668 43.5352C274.296 43.7435 273.984 44.03 273.73 44.3946C273.483 44.7527 273.297 45.166 273.173 45.6348C273.05 46.097 272.988 46.5886 272.988 47.1095ZM144.33 73.6388L149.203 65.9337H151.02V76.5H149.203V68.7949L144.33 76.5H142.533V65.9337H144.33V73.6388ZM161.585 65.9337H163.392L163.236 69.8888C163.196 70.8914 163.083 71.7572 162.894 72.4863C162.705 73.2155 162.464 73.8373 162.171 74.3517C161.878 74.8595 161.549 75.2858 161.185 75.6309C160.827 75.9759 160.456 76.2656 160.071 76.5H159.173L159.222 75.0254L159.593 75.0157C159.808 74.7618 160.016 74.5013 160.218 74.2344C160.42 73.9609 160.605 73.6388 160.775 73.2677C160.944 72.8901 161.084 72.4311 161.195 71.8907C161.312 71.3439 161.387 70.6765 161.419 69.8888L161.585 65.9337ZM162.034 65.9337H168.392V76.5H166.585V67.6035H162.034V65.9337ZM158.763 75.0157H169.749V79.6152H167.943V76.5H160.57V79.6152H158.753L158.763 75.0157ZM174.104 73.6388L178.977 65.9337H180.794V76.5H178.977V68.7949L174.104 76.5H172.307V65.9337H174.104V73.6388ZM188.323 75.2109C188.752 75.2109 189.149 75.1231 189.514 74.9474C189.879 74.7716 190.178 74.5307 190.412 74.2247C190.647 73.9122 190.78 73.5574 190.813 73.1603H192.532C192.499 73.7853 192.287 74.3679 191.897 74.9083C191.513 75.4422 191.008 75.8751 190.383 76.2071C189.758 76.5327 189.071 76.6953 188.323 76.6953C187.528 76.6953 186.835 76.5553 186.243 76.2754C185.657 75.9954 185.168 75.6114 184.778 75.1231C184.394 74.6349 184.104 74.0749 183.909 73.4434C183.72 72.8053 183.625 72.1315 183.625 71.4219V71.0118C183.625 70.3022 183.72 69.6315 183.909 69C184.104 68.362 184.394 67.7989 184.778 67.3106C185.168 66.8224 185.657 66.4383 186.243 66.1583C186.835 65.8784 187.528 65.7383 188.323 65.7383C189.149 65.7383 189.872 65.9077 190.491 66.2462C191.109 66.5782 191.594 67.0339 191.946 67.6133C192.304 68.1862 192.499 68.8372 192.532 69.5664H190.813C190.78 69.1302 190.657 68.7364 190.442 68.3849C190.233 68.0333 189.947 67.7533 189.582 67.5449C189.224 67.3301 188.804 67.2228 188.323 67.2228C187.769 67.2228 187.304 67.3334 186.926 67.5548C186.555 67.7696 186.259 68.0626 186.037 68.4337C185.823 68.7983 185.666 69.2051 185.569 69.6543C185.478 70.097 185.432 70.5496 185.432 71.0118V71.4219C185.432 71.8841 185.478 72.3399 185.569 72.7892C185.66 73.2384 185.813 73.6453 186.028 74.0099C186.249 74.3744 186.545 74.6674 186.916 74.8888C187.294 75.1036 187.763 75.2109 188.323 75.2109ZM199.27 65.9337V76.5H197.453V65.9337H199.27ZM202.814 65.9337V67.3984H193.977V65.9337H202.814ZM211.066 74.6934V69.2539C211.066 68.8372 210.981 68.4759 210.812 68.1699C210.649 67.8574 210.402 67.6166 210.07 67.4474C209.738 67.2781 209.328 67.1934 208.839 67.1934C208.384 67.1934 207.983 67.2715 207.638 67.4277C207.3 67.584 207.033 67.7891 206.838 68.043C206.649 68.2969 206.554 68.5703 206.554 68.8633H204.748C204.748 68.4857 204.845 68.1113 205.041 67.7402C205.236 67.3691 205.516 67.0339 205.88 66.7344C206.252 66.4284 206.694 66.1876 207.209 66.0118C207.729 65.8295 208.309 65.7383 208.947 65.7383C209.715 65.7383 210.392 65.8685 210.978 66.1289C211.571 66.3893 212.033 66.7833 212.365 67.3106C212.703 67.8315 212.873 68.4857 212.873 69.2734V74.1953C212.873 74.5469 212.902 74.9212 212.961 75.3184C213.026 75.7155 213.12 76.0574 213.244 76.3439V76.5H211.359C211.268 76.2917 211.196 76.015 211.144 75.6699C211.092 75.3184 211.066 74.9928 211.066 74.6934ZM211.379 70.0939L211.398 71.3633H209.572C209.058 71.3633 208.599 71.4056 208.195 71.4902C207.791 71.5684 207.453 71.6889 207.179 71.8517C206.906 72.0144 206.698 72.2194 206.554 72.4668C206.411 72.7077 206.339 72.9909 206.339 73.3164C206.339 73.6484 206.414 73.9513 206.564 74.2247C206.714 74.4981 206.938 74.7161 207.238 74.8789C207.544 75.0352 207.918 75.1133 208.361 75.1133C208.914 75.1133 209.403 74.9962 209.826 74.7618C210.249 74.5274 210.584 74.2409 210.832 73.9023C211.086 73.5638 211.222 73.235 211.242 72.916L212.013 73.7853C211.968 74.0587 211.844 74.3613 211.642 74.6934C211.44 75.0254 211.17 75.3444 210.832 75.6504C210.5 75.9499 210.102 76.2005 209.64 76.4023C209.185 76.5977 208.67 76.6953 208.097 76.6953C207.381 76.6953 206.753 76.5553 206.213 76.2754C205.679 75.9954 205.262 75.6211 204.963 75.1523C204.67 74.6771 204.523 74.1466 204.523 73.5606C204.523 72.9942 204.634 72.4961 204.855 72.0664C205.076 71.6302 205.395 71.2689 205.812 70.9824C206.229 70.6895 206.73 70.4681 207.316 70.3184C207.902 70.1686 208.556 70.0939 209.279 70.0939H211.379ZM223.282 70.5138V71.9785H217.696V70.5138H223.282ZM218.077 65.9337V76.5H216.271V65.9337H218.077ZM224.747 65.9337V76.5H222.931V65.9337H224.747ZM228.214 76.5V65.9337H230.02V75.0157H234.884V65.9337H236.7V76.5H228.214ZM237.95 75.0157L237.774 79.6349H236.163V76.5H234.786V75.0157H237.95ZM242.266 73.6388L247.139 65.9337H248.955V76.5H247.139V68.7949L242.266 76.5H240.469V65.9337H242.266V73.6388ZM251.777 71.334V71.1094C251.777 70.3477 251.888 69.6413 252.109 68.9902C252.331 68.3327 252.65 67.763 253.066 67.2812C253.483 66.793 253.988 66.4154 254.58 66.1484C255.173 65.875 255.837 65.7383 256.572 65.7383C257.314 65.7383 257.982 65.875 258.574 66.1484C259.173 66.4154 259.681 66.793 260.098 67.2812C260.521 67.763 260.843 68.3327 261.064 68.9902C261.286 69.6413 261.396 70.3477 261.396 71.1094V71.334C261.396 72.0957 261.286 72.8022 261.064 73.4532C260.843 74.1043 260.521 74.6739 260.098 75.1622C259.681 75.644 259.176 76.0215 258.584 76.2949C257.998 76.5618 257.334 76.6953 256.592 76.6953C255.85 76.6953 255.182 76.5618 254.59 76.2949C253.997 76.0215 253.49 75.644 253.066 75.1622C252.65 74.6739 252.331 74.1043 252.109 73.4532C251.888 72.8022 251.777 72.0957 251.777 71.334ZM253.584 71.1094V71.334C253.584 71.8613 253.646 72.3595 253.77 72.8282C253.893 73.2905 254.079 73.7006 254.326 74.0587C254.58 74.4168 254.896 74.7 255.273 74.9083C255.651 75.1101 256.09 75.2109 256.592 75.2109C257.087 75.2109 257.52 75.1101 257.891 74.9083C258.268 74.7 258.581 74.4168 258.828 74.0587C259.076 73.7006 259.261 73.2905 259.385 72.8282C259.515 72.3595 259.58 71.8613 259.58 71.334V71.1094C259.58 70.5885 259.515 70.0971 259.385 69.6349C259.261 69.1661 259.072 68.7527 258.818 68.3946C258.571 68.03 258.258 67.7436 257.881 67.5353C257.51 67.3269 257.074 67.2228 256.572 67.2228C256.077 67.2228 255.641 67.3269 255.264 67.5353C254.893 67.7436 254.58 68.03 254.326 68.3946C254.079 68.7527 253.893 69.1661 253.77 69.6349C253.646 70.0971 253.584 70.5885 253.584 71.1094ZM271.23 70.5138V71.9785H265.644V70.5138H271.23ZM266.025 65.9337V76.5H264.218V65.9337H266.025ZM272.695 65.9337V76.5H270.879V65.9337H272.695ZM283.173 70.5138V71.9785H277.587V70.5138H283.173ZM277.968 65.9337V76.5H276.161V65.9337H277.968ZM284.638 65.9337V76.5H282.821V65.9337H284.638ZM287.47 71.334V71.1094C287.47 70.3477 287.58 69.6413 287.802 68.9902C288.023 68.3327 288.342 67.763 288.759 67.2812C289.175 66.793 289.68 66.4154 290.272 66.1484C290.865 65.875 291.529 65.7383 292.264 65.7383C293.007 65.7383 293.674 65.875 294.266 66.1484C294.865 66.4154 295.373 66.793 295.79 67.2812C296.213 67.763 296.535 68.3327 296.757 68.9902C296.978 69.6413 297.089 70.3477 297.089 71.1094V71.334C297.089 72.0957 296.978 72.8022 296.757 73.4532C296.535 74.1043 296.213 74.6739 295.79 75.1622C295.373 75.644 294.869 76.0215 294.276 76.2949C293.69 76.5618 293.026 76.6953 292.284 76.6953C291.542 76.6953 290.874 76.5618 290.282 76.2949C289.69 76.0215 289.182 75.644 288.759 75.1622C288.342 74.6739 288.023 74.1043 287.802 73.4532C287.58 72.8022 287.47 72.0957 287.47 71.334ZM289.276 71.1094V71.334C289.276 71.8613 289.338 72.3595 289.462 72.8282C289.585 73.2905 289.771 73.7006 290.018 74.0587C290.272 74.4168 290.588 74.7 290.966 74.9083C291.343 75.1101 291.783 75.2109 292.284 75.2109C292.779 75.2109 293.212 75.1101 293.583 74.9083C293.96 74.7 294.273 74.4168 294.52 74.0587C294.768 73.7006 294.953 73.2905 295.077 72.8282C295.207 72.3595 295.272 71.8613 295.272 71.334V71.1094C295.272 70.5885 295.207 70.0971 295.077 69.6349C294.953 69.1661 294.764 68.7527 294.511 68.3946C294.263 68.03 293.951 67.7436 293.573 67.5353C293.202 67.3269 292.766 67.2228 292.264 67.2228C291.77 67.2228 291.333 67.3269 290.956 67.5353C290.585 67.7436 290.272 68.03 290.018 68.3946C289.771 68.7527 289.585 69.1661 289.462 69.6349C289.338 70.0971 289.276 70.5885 289.276 71.1094ZM306.58 65.9337V67.4277H301.698V76.5H299.891V65.9337H306.58ZM307.879 71.334V71.1094C307.879 70.3477 307.99 69.6413 308.211 68.9902C308.432 68.3327 308.751 67.763 309.168 67.2812C309.585 66.793 310.089 66.4154 310.682 66.1484C311.274 65.875 311.938 65.7383 312.674 65.7383C313.416 65.7383 314.083 65.875 314.676 66.1484C315.275 66.4154 315.783 66.793 316.199 67.2812C316.622 67.763 316.945 68.3327 317.166 68.9902C317.387 69.6413 317.498 70.3477 317.498 71.1094V71.334C317.498 72.0957 317.387 72.8022 317.166 73.4532C316.945 74.1043 316.622 74.6739 316.199 75.1622C315.783 75.644 315.278 76.0215 314.686 76.2949C314.1 76.5618 313.436 76.6953 312.693 76.6953C311.951 76.6953 311.284 76.5618 310.691 76.2949C310.099 76.0215 309.591 75.644 309.168 75.1622C308.751 74.6739 308.432 74.1043 308.211 73.4532C307.99 72.8022 307.879 72.0957 307.879 71.334ZM309.686 71.1094V71.334C309.686 71.8613 309.747 72.3595 309.871 72.8282C309.995 73.2905 310.18 73.7006 310.428 74.0587C310.682 74.4168 310.997 74.7 311.375 74.9083C311.753 75.1101 312.192 75.2109 312.693 75.2109C313.188 75.2109 313.621 75.1101 313.992 74.9083C314.37 74.7 314.682 74.4168 314.93 74.0587C315.177 73.7006 315.363 73.2905 315.486 72.8282C315.617 72.3595 315.682 71.8613 315.682 71.334V71.1094C315.682 70.5885 315.617 70.0971 315.486 69.6349C315.363 69.1661 315.174 68.7527 314.92 68.3946C314.673 68.03 314.36 67.7436 313.982 67.5353C313.611 67.3269 313.175 67.2228 312.674 67.2228C312.179 67.2228 311.743 67.3269 311.365 67.5353C310.994 67.7436 310.682 68.03 310.428 68.3946C310.18 68.7527 309.995 69.1661 309.871 69.6349C309.747 70.0971 309.686 70.5885 309.686 71.1094ZM141.898 95.334V95.1095C141.898 94.3478 142.009 93.6413 142.23 92.9902C142.452 92.3327 142.771 91.763 143.188 91.2812C143.604 90.793 144.109 90.4155 144.701 90.1485C145.294 89.8751 145.958 89.7383 146.693 89.7383C147.436 89.7383 148.103 89.8751 148.695 90.1485C149.294 90.4155 149.802 90.793 150.219 91.2812C150.642 91.763 150.964 92.3327 151.186 92.9902C151.407 93.6413 151.518 94.3478 151.518 95.1095V95.334C151.518 96.0957 151.407 96.8022 151.186 97.4532C150.964 98.1043 150.642 98.6739 150.219 99.1622C149.802 99.644 149.298 100.021 148.705 100.295C148.119 100.562 147.455 100.695 146.713 100.695C145.971 100.695 145.303 100.562 144.711 100.295C144.118 100.021 143.611 99.644 143.188 99.1622C142.771 98.6739 142.452 98.1043 142.23 97.4532C142.009 96.8022 141.898 96.0957 141.898 95.334ZM143.705 95.1095V95.334C143.705 95.8613 143.767 96.3595 143.891 96.8282C144.014 97.2905 144.2 97.7006 144.447 98.0587C144.701 98.4168 145.017 98.6999 145.395 98.9082C145.772 99.11 146.212 99.211 146.713 99.211C147.208 99.211 147.641 99.11 148.012 98.9082C148.389 98.6999 148.702 98.4168 148.949 98.0587C149.197 97.7006 149.382 97.2905 149.506 96.8282C149.636 96.3595 149.701 95.8613 149.701 95.334V95.1095C149.701 94.5886 149.636 94.0971 149.506 93.6349C149.382 93.1661 149.193 92.7526 148.939 92.3945C148.692 92.0299 148.38 91.7435 148.002 91.5352C147.631 91.3268 147.195 91.2227 146.693 91.2227C146.199 91.2227 145.762 91.3268 145.385 91.5352C145.014 91.7435 144.701 92.0299 144.447 92.3945C144.2 92.7526 144.014 93.1661 143.891 93.6349C143.767 94.0971 143.705 94.5886 143.705 95.1095ZM160.961 85.334H162.445C162.445 85.972 162.347 86.4799 162.152 86.8575C161.957 87.2286 161.69 87.515 161.351 87.7168C161.019 87.9186 160.642 88.0716 160.218 88.1758C159.802 88.2799 159.369 88.3809 158.92 88.4785C158.36 88.5957 157.839 88.7812 157.357 89.0352C156.882 89.2826 156.472 89.6341 156.127 90.0898C155.788 90.5456 155.537 91.138 155.375 91.8672C155.218 92.5964 155.176 93.4981 155.248 94.5724V95.4707H153.763V94.5724C153.763 93.3679 153.877 92.3164 154.105 91.418C154.339 90.5195 154.668 89.7612 155.091 89.1427C155.515 88.5242 156.016 88.0326 156.595 87.668C157.181 87.3034 157.826 87.0527 158.529 86.916C159.037 86.8184 159.473 86.7142 159.837 86.6035C160.202 86.4863 160.479 86.3302 160.668 86.1349C160.863 85.9396 160.961 85.6725 160.961 85.334ZM158.822 90.5392C159.512 90.5392 160.127 90.6596 160.668 90.9005C161.208 91.1414 161.667 91.4766 162.045 91.9062C162.422 92.3359 162.709 92.8438 162.904 93.4297C163.106 94.0091 163.207 94.6406 163.207 95.3242V95.5392C163.207 96.2748 163.099 96.9583 162.884 97.5898C162.676 98.2148 162.367 98.7617 161.957 99.2305C161.553 99.6927 161.058 100.054 160.472 100.314C159.893 100.575 159.232 100.705 158.49 100.705C157.748 100.705 157.084 100.575 156.498 100.314C155.918 100.054 155.423 99.6927 155.013 99.2305C154.603 98.7617 154.291 98.2148 154.076 97.5898C153.867 96.9583 153.763 96.2748 153.763 95.5392V95.3242C153.763 95.1615 153.793 95.002 153.851 94.8457C153.91 94.6895 153.981 94.5299 154.066 94.3672C154.157 94.2044 154.239 94.032 154.31 93.8497C154.551 93.2638 154.88 92.7202 155.296 92.2189C155.72 91.7175 156.224 91.3138 156.81 91.0078C157.403 90.6953 158.073 90.5392 158.822 90.5392ZM158.47 92.0137C157.806 92.0137 157.259 92.1667 156.83 92.4727C156.407 92.7786 156.091 93.1856 155.882 93.6935C155.674 94.1948 155.57 94.7383 155.57 95.3242V95.5392C155.57 96.034 155.629 96.5026 155.746 96.9453C155.863 97.388 156.039 97.7819 156.273 98.127C156.514 98.4655 156.817 98.7324 157.181 98.9277C157.552 99.123 157.989 99.2207 158.49 99.2207C158.991 99.2207 159.424 99.123 159.789 98.9277C160.153 98.7324 160.453 98.4655 160.687 98.127C160.921 97.7819 161.097 97.388 161.214 96.9453C161.332 96.5026 161.39 96.034 161.39 95.5392V95.3242C161.39 94.8815 161.332 94.4616 161.214 94.0645C161.097 93.6673 160.918 93.3159 160.677 93.0099C160.443 92.7039 160.14 92.463 159.769 92.2872C159.405 92.1049 158.972 92.0137 158.47 92.0137ZM167.288 91.9648V104.562H165.472V89.9337H167.132L167.288 91.9648ZM174.407 95.129V95.334C174.407 96.1022 174.316 96.8151 174.134 97.4727C173.952 98.1237 173.685 98.6902 173.333 99.172C172.988 99.6537 172.562 100.028 172.054 100.295C171.546 100.562 170.963 100.695 170.306 100.695C169.635 100.695 169.043 100.585 168.529 100.363C168.014 100.142 167.578 99.8197 167.22 99.3965C166.862 98.9733 166.575 98.4655 166.361 97.873C166.152 97.2806 166.009 96.6134 165.931 95.8712V94.7773C166.009 93.9961 166.155 93.2962 166.37 92.6777C166.585 92.0592 166.868 91.5319 167.22 91.0957C167.578 90.653 168.011 90.3177 168.519 90.0898C169.027 89.8555 169.612 89.7383 170.277 89.7383C170.941 89.7383 171.53 89.8686 172.044 90.129C172.558 90.3829 172.991 90.7474 173.343 91.2227C173.695 91.6979 173.958 92.2677 174.134 92.9317C174.316 93.5893 174.407 94.3217 174.407 95.129ZM172.591 95.334V95.129C172.591 94.6017 172.536 94.1068 172.425 93.6445C172.314 93.1758 172.142 92.7657 171.907 92.4142C171.68 92.0561 171.387 91.776 171.029 91.5742C170.67 91.3659 170.244 91.2617 169.749 91.2617C169.293 91.2617 168.896 91.3399 168.558 91.4962C168.226 91.6524 167.943 91.864 167.708 92.131C167.474 92.3914 167.282 92.6908 167.132 93.0293C166.989 93.3613 166.881 93.7064 166.81 94.0645V96.5939C166.94 97.0496 167.122 97.4792 167.357 97.8828C167.591 98.2799 167.904 98.6023 168.294 98.8497C168.685 99.0906 169.176 99.211 169.769 99.211C170.257 99.211 170.677 99.11 171.029 98.9082C171.387 98.6999 171.68 98.4168 171.907 98.0587C172.142 97.7006 172.314 97.2905 172.425 96.8282C172.536 96.3595 172.591 95.8613 172.591 95.334ZM183.343 98.6935V93.254C183.343 92.8373 183.258 92.476 183.089 92.17C182.926 91.8575 182.679 91.6166 182.346 91.4474C182.014 91.2781 181.604 91.1935 181.116 91.1935C180.66 91.1935 180.26 91.2715 179.915 91.4277C179.576 91.584 179.309 91.7891 179.114 92.043C178.925 92.2969 178.831 92.5703 178.831 92.8633H177.024C177.024 92.4857 177.122 92.1113 177.317 91.7402C177.513 91.3691 177.792 91.034 178.157 90.7345C178.528 90.4285 178.971 90.1875 179.485 90.0117C180.006 89.8294 180.585 89.7383 181.223 89.7383C181.992 89.7383 182.669 89.8686 183.255 90.129C183.847 90.3894 184.309 90.7832 184.641 91.3105C184.98 91.8314 185.149 92.4858 185.149 93.2735V98.1953C185.149 98.5469 185.179 98.9213 185.237 99.3185C185.302 99.7156 185.397 100.057 185.52 100.344V100.5H183.636C183.544 100.292 183.473 100.015 183.421 99.67C183.369 99.3185 183.343 98.9929 183.343 98.6935ZM183.655 94.0939L183.675 95.3633H181.848C181.334 95.3633 180.875 95.4056 180.471 95.4902C180.068 95.5684 179.729 95.6889 179.456 95.8517C179.182 96.0144 178.974 96.2194 178.831 96.4668C178.688 96.7077 178.616 96.991 178.616 97.3165C178.616 97.6485 178.691 97.9513 178.841 98.2247C178.99 98.4981 179.215 98.7162 179.514 98.879C179.82 99.0353 180.195 99.1133 180.638 99.1133C181.191 99.1133 181.679 98.9961 182.102 98.7617C182.526 98.5273 182.861 98.2409 183.108 97.9023C183.362 97.5638 183.499 97.235 183.518 96.916L184.29 97.7852C184.244 98.0586 184.121 98.3614 183.919 98.6935C183.717 99.0255 183.447 99.3445 183.108 99.6505C182.776 99.95 182.379 100.201 181.917 100.402C181.461 100.598 180.947 100.695 180.374 100.695C179.658 100.695 179.029 100.555 178.489 100.275C177.955 99.9955 177.539 99.6211 177.239 99.1523C176.946 98.6771 176.8 98.1465 176.8 97.5605C176.8 96.9941 176.91 96.4962 177.132 96.0665C177.353 95.6303 177.672 95.269 178.089 94.9825C178.505 94.6896 179.007 94.4682 179.593 94.3185C180.179 94.1687 180.833 94.0939 181.555 94.0939H183.655ZM192.336 95.4512H190.393V94.338H192.19C192.691 94.338 193.088 94.276 193.381 94.1523C193.674 94.0221 193.883 93.8431 194.006 93.6152C194.13 93.3874 194.192 93.1204 194.192 92.8145C194.192 92.541 194.12 92.2839 193.977 92.043C193.84 91.7956 193.619 91.5971 193.313 91.4474C193.007 91.2911 192.597 91.213 192.082 91.213C191.666 91.213 191.288 91.2878 190.95 91.4375C190.611 91.5807 190.341 91.7793 190.139 92.0332C189.944 92.2806 189.846 92.5605 189.846 92.873H188.039C188.039 92.2285 188.222 91.6752 188.586 91.213C188.957 90.7442 189.449 90.3829 190.061 90.129C190.679 89.8751 191.353 89.748 192.082 89.748C192.694 89.748 193.241 89.8165 193.723 89.9532C194.211 90.0834 194.625 90.2787 194.963 90.5392C195.302 90.7931 195.559 91.1121 195.735 91.4962C195.917 91.8738 196.008 92.3132 196.008 92.8145C196.008 93.1725 195.924 93.5112 195.754 93.8302C195.585 94.1492 195.341 94.4323 195.022 94.6797C194.703 94.9206 194.315 95.1095 193.86 95.2462C193.411 95.3829 192.903 95.4512 192.336 95.4512ZM190.393 94.7677H192.336C192.968 94.7677 193.524 94.8295 194.006 94.9532C194.488 95.0704 194.892 95.2461 195.217 95.4805C195.543 95.7148 195.787 96.0047 195.95 96.3497C196.119 96.6883 196.204 97.0788 196.204 97.5215C196.204 98.0163 196.103 98.4623 195.901 98.8595C195.705 99.2501 195.426 99.582 195.061 99.8555C194.696 100.129 194.26 100.337 193.752 100.48C193.251 100.624 192.694 100.695 192.082 100.695C191.399 100.695 190.735 100.578 190.09 100.344C189.446 100.109 188.915 99.7481 188.498 99.2599C188.082 98.7651 187.873 98.1367 187.873 97.375H189.68C189.68 97.694 189.781 97.9967 189.983 98.2832C190.185 98.5697 190.465 98.8009 190.823 98.9767C191.187 99.1524 191.607 99.2402 192.082 99.2402C192.59 99.2402 193.013 99.1622 193.352 99.006C193.69 98.8497 193.944 98.6414 194.114 98.381C194.289 98.1205 194.377 97.8372 194.377 97.5312C194.377 97.1341 194.299 96.8151 194.143 96.5742C193.987 96.3333 193.746 96.1577 193.42 96.047C193.101 95.9298 192.691 95.8712 192.19 95.8712H190.393V94.7677ZM198.469 95.334V95.1095C198.469 94.3478 198.579 93.6413 198.801 92.9902C199.022 92.3327 199.341 91.763 199.758 91.2812C200.174 90.793 200.679 90.4155 201.271 90.1485C201.864 89.8751 202.528 89.7383 203.264 89.7383C204.006 89.7383 204.673 89.8751 205.266 90.1485C205.865 90.4155 206.372 90.793 206.789 91.2812C207.212 91.763 207.535 92.3327 207.756 92.9902C207.977 93.6413 208.088 94.3478 208.088 95.1095V95.334C208.088 96.0957 207.977 96.8022 207.756 97.4532C207.535 98.1043 207.212 98.6739 206.789 99.1622C206.372 99.644 205.868 100.021 205.275 100.295C204.689 100.562 204.025 100.695 203.283 100.695C202.541 100.695 201.874 100.562 201.281 100.295C200.689 100.021 200.181 99.644 199.758 99.1622C199.341 98.6739 199.022 98.1043 198.801 97.4532C198.579 96.8022 198.469 96.0957 198.469 95.334ZM200.275 95.1095V95.334C200.275 95.8613 200.337 96.3595 200.461 96.8282C200.585 97.2905 200.77 97.7006 201.018 98.0587C201.271 98.4168 201.587 98.6999 201.965 98.9082C202.342 99.11 202.782 99.211 203.283 99.211C203.778 99.211 204.211 99.11 204.582 98.9082C204.96 98.6999 205.272 98.4168 205.52 98.0587C205.767 97.7006 205.952 97.2905 206.076 96.8282C206.206 96.3595 206.271 95.8613 206.271 95.334V95.1095C206.271 94.5886 206.206 94.0971 206.076 93.6349C205.952 93.1661 205.764 92.7526 205.51 92.3945C205.262 92.0299 204.95 91.7435 204.572 91.5352C204.201 91.3268 203.765 91.2227 203.264 91.2227C202.769 91.2227 202.333 91.3268 201.955 91.5352C201.584 91.7435 201.271 92.0299 201.018 92.3945C200.77 92.7526 200.585 93.1661 200.461 93.6349C200.337 94.0971 200.275 94.5886 200.275 95.1095ZM215.714 95.8517H212.248L212.228 94.4062H215.06C215.62 94.4062 216.086 94.3509 216.457 94.2402C216.834 94.1296 217.117 93.9635 217.306 93.7422C217.495 93.5208 217.589 93.2475 217.589 92.922C217.589 92.6681 217.534 92.4466 217.423 92.2578C217.319 92.0625 217.16 91.903 216.945 91.7793C216.73 91.6491 216.463 91.5548 216.144 91.4962C215.832 91.4311 215.464 91.3985 215.041 91.3985H212.726V100.5H210.92V89.9337H215.041C215.711 89.9337 216.313 89.9923 216.847 90.1095C217.388 90.2267 217.847 90.4056 218.224 90.6465C218.608 90.8809 218.901 91.1804 219.103 91.545C219.305 91.9096 219.406 92.3392 219.406 92.834C219.406 93.153 219.341 93.4557 219.211 93.7422C219.08 94.0286 218.888 94.2827 218.634 94.504C218.38 94.7254 218.068 94.9076 217.697 95.0508C217.326 95.1875 216.899 95.2754 216.418 95.3145L215.714 95.8517ZM215.714 100.5H211.593L212.492 99.0352H215.714C216.216 99.0352 216.632 98.9734 216.964 98.8497C217.296 98.7195 217.544 98.5371 217.707 98.3027C217.876 98.0618 217.961 97.7755 217.961 97.4435C217.961 97.1114 217.876 96.8282 217.707 96.5939C217.544 96.353 217.296 96.1707 216.964 96.047C216.632 95.9168 216.216 95.8517 215.714 95.8517H212.97L212.99 94.4062H216.418L217.072 94.9532C217.651 94.9988 218.143 95.1419 218.546 95.3828C218.95 95.6237 219.256 95.9297 219.464 96.3008C219.673 96.6654 219.777 97.0625 219.777 97.4922C219.777 97.987 219.683 98.4232 219.494 98.8008C219.311 99.1784 219.045 99.4941 218.693 99.748C218.341 99.9954 217.915 100.184 217.414 100.314C216.912 100.438 216.346 100.5 215.714 100.5ZM228.829 98.6935V93.254C228.829 92.8373 228.745 92.476 228.575 92.17C228.413 91.8575 228.165 91.6166 227.833 91.4474C227.501 91.2781 227.091 91.1935 226.603 91.1935C226.147 91.1935 225.747 91.2715 225.402 91.4277C225.063 91.584 224.796 91.7891 224.601 92.043C224.412 92.2969 224.318 92.5703 224.318 92.8633H222.511C222.511 92.4857 222.609 92.1113 222.804 91.7402C222.999 91.3691 223.279 91.034 223.644 90.7345C224.015 90.4285 224.458 90.1875 224.972 90.0117C225.493 89.8294 226.072 89.7383 226.71 89.7383C227.478 89.7383 228.155 89.8686 228.741 90.129C229.334 90.3894 229.796 90.7832 230.128 91.3105C230.467 91.8314 230.636 92.4858 230.636 93.2735V98.1953C230.636 98.5469 230.665 98.9213 230.724 99.3185C230.789 99.7156 230.883 100.057 231.007 100.344V100.5H229.122C229.031 100.292 228.96 100.015 228.907 99.67C228.855 99.3185 228.829 98.9929 228.829 98.6935ZM229.142 94.0939L229.161 95.3633H227.335C226.821 95.3633 226.362 95.4056 225.958 95.4902C225.555 95.5684 225.216 95.6889 224.943 95.8517C224.669 96.0144 224.461 96.2194 224.318 96.4668C224.174 96.7077 224.103 96.991 224.103 97.3165C224.103 97.6485 224.178 97.9513 224.327 98.2247C224.477 98.4981 224.702 98.7162 225.001 98.879C225.307 99.0353 225.682 99.1133 226.124 99.1133C226.678 99.1133 227.166 98.9961 227.589 98.7617C228.012 98.5273 228.348 98.2409 228.595 97.9023C228.849 97.5638 228.986 97.235 229.005 96.916L229.777 97.7852C229.731 98.0586 229.607 98.3614 229.405 98.6935C229.204 99.0255 228.933 99.3445 228.595 99.6505C228.263 99.95 227.866 100.201 227.404 100.402C226.948 100.598 226.433 100.695 225.861 100.695C225.144 100.695 224.516 100.555 223.976 100.275C223.442 99.9955 223.025 99.6211 222.726 99.1523C222.433 98.6771 222.286 98.1465 222.286 97.5605C222.286 96.9941 222.397 96.4962 222.618 96.0665C222.84 95.6303 223.159 95.269 223.575 94.9825C223.992 94.6896 224.493 94.4682 225.079 94.3185C225.665 94.1687 226.32 94.0939 227.042 94.0939H229.142ZM241.046 94.5137V95.9785H235.46V94.5137H241.046ZM235.841 89.9337V100.5H234.034V89.9337H235.841ZM242.511 89.9337V100.5H240.694V89.9337H242.511ZM247.774 97.6387L252.647 89.9337H254.463V100.5H252.647V92.795L247.774 100.5H245.977V89.9337H247.774V97.6387ZM259.902 95.461H261.855L258.799 100.5H256.846L259.902 95.461ZM261.416 89.9337H265.83V100.5H264.023V91.3985H261.416C260.902 91.3985 260.482 91.4864 260.156 91.6622C259.831 91.8315 259.593 92.0527 259.443 92.3262C259.294 92.5996 259.219 92.8828 259.219 93.1758C259.219 93.4622 259.287 93.739 259.424 94.006C259.561 94.2664 259.775 94.4812 260.068 94.6505C260.361 94.8198 260.739 94.9043 261.201 94.9043H264.512V96.3887H261.201C260.596 96.3887 260.059 96.3073 259.59 96.1445C259.121 95.9818 258.724 95.7572 258.398 95.4707C258.073 95.1777 257.826 94.8359 257.656 94.4453C257.487 94.0482 257.402 93.6186 257.402 93.1562C257.402 92.6941 257.49 92.2676 257.666 91.877C257.848 91.4863 258.109 91.1446 258.447 90.8517C258.792 90.5587 259.212 90.334 259.707 90.1777C260.208 90.015 260.778 89.9337 261.416 89.9337Z" fill="#005AAA"/>
<path fill-rule="evenodd" clip-rule="evenodd" d="M74.2182 34.1856C93.8295 36.4805 114.785 43.6392 114.785 56.8523C114.785 72.3556 85.9814 80.4673 57.525 80.4673C57.4551 80.4673 57.3856 80.4664 57.3163 80.4655C57.2474 80.4646 57.1786 80.4638 57.11 80.4638C69.9926 94.1801 81.5823 99.7106 85.4259 97.0193C86.8538 96.0198 87.5908 93.3374 87.4483 89.6638C87.3569 87.2865 89.2087 85.2842 91.587 85.1906C93.9327 85.0794 95.965 86.9504 96.0573 89.3287C96.3937 97.9898 93.1484 102.13 90.367 104.077C88.1814 105.608 85.683 106.314 82.9646 106.314C72.0482 106.315 57.5559 94.9404 45.204 79.9511C39.9402 79.5102 34.8166 78.7857 30.0233 77.7817C26.7203 87.9097 26.8538 95.0806 29.6216 97.0193C31.7327 98.4942 36.5036 97.3042 42.0702 93.9073C44.1035 92.6697 46.7523 93.3109 47.9908 95.3409C49.2306 97.3723 48.5885 100.022 46.5575 101.262C40.4644 104.979 35.6944 106.264 32.0132 106.264C28.7858 106.264 26.3953 105.277 24.6815 104.078C17.6492 99.1529 17.5479 88.2879 21.6222 75.6181C9.01428 71.6848 0.263672 65.3921 0.263672 56.8523C0.263672 49.0761 7.77899 42.5128 21.5031 38.1744C21.2171 37.2518 20.9444 36.3358 20.704 35.4365C16.5363 19.8472 20.566 13.1393 24.6815 10.259C28.2728 7.74142 34.8923 6.1343 46.032 12.7565C48.0767 13.9729 48.7485 16.6162 47.5337 18.6608C46.3169 20.7053 43.6729 21.3764 41.6297 20.1633C36.2688 16.9768 31.6682 15.885 29.6227 17.3163C27.7397 18.634 26.4543 23.5879 29.0273 33.2106C30.2982 37.9652 32.3102 43.1316 34.9332 48.466C35.9839 46.8346 37.0655 45.2163 38.1807 43.6226C44.9468 33.9607 52.5202 25.5089 60.0789 19.1872C72.726 8.60731 83.483 5.43646 90.3686 10.259C93.6014 12.5227 97.1635 17.5022 95.7714 28.3669C95.4698 30.7276 93.3098 32.3959 90.9516 32.0921C88.5922 31.7893 86.9241 29.6313 87.2266 27.2707C87.8668 22.2746 87.1934 18.5539 85.4275 17.3163C82.8885 15.5422 75.6017 17.4343 65.6066 25.7949C58.6203 31.6402 51.5766 39.5133 45.2388 48.565C43.1876 51.4946 41.3368 54.368 39.6664 57.166C41.3783 60.0356 43.24 62.9157 45.2388 65.7706C46.6789 67.8262 48.1256 69.7736 49.5724 71.6302C52.1273 71.7739 54.7793 71.8496 57.525 71.8496C87.2202 71.8496 106.17 62.9681 106.17 56.8523C106.17 52.7165 95.6966 45.3731 73.2164 42.7441C70.8541 42.4671 69.1623 40.3281 69.4386 37.9652C69.7153 35.6024 71.852 33.9118 74.2182 34.1856ZM24.4723 46.2733C13.7908 49.6 8.8796 53.9863 8.8796 56.8523C8.8796 60.2123 14.611 64.4047 24.6904 67.5036C26.1561 64.0967 27.8532 60.6295 29.7495 57.1686C27.7352 53.4844 25.9668 49.8316 24.4723 46.2733ZM38.004 70.4549C36.9431 68.9325 35.9171 67.401 34.9287 65.8661C34.3013 67.1439 33.7203 68.3948 33.1763 69.6215C34.7208 69.9262 36.3346 70.2035 38.004 70.4549ZM57.5244 69.2884C50.9976 69.2884 45.6877 63.9773 45.6877 57.4498C45.6877 50.9222 50.9976 45.6108 57.5244 45.6108C64.0507 45.6108 69.3611 50.9222 69.3611 57.4498C69.3611 63.9773 64.0507 69.2884 57.5244 69.2884ZM57.5244 60.6707C59.3009 60.6707 60.7451 59.2262 60.7451 57.4498C60.7451 55.6733 59.3009 54.2285 57.5244 54.2285C55.7483 54.2285 54.3028 55.6733 54.3028 57.4498C54.3028 59.2262 55.7483 60.6707 57.5244 60.6707Z" fill="url(#paint0_linear_23_19)"/>
<defs>
<linearGradient id="paint0_linear_23_19" x1="0.263672" y1="72.4562" x2="114.786" y2="72.5146" gradientUnits="userSpaceOnUse">
<stop stop-color="#002C5F"/>
<stop offset="0.588542" stop-color="#FF6418"/>
<stop offset="1" stop-color="#E7E514"/>
</linearGradient>
</defs>
</svg>
