<?xml version="1.0" standalone="no"?>
<!DOCTYPE svg PUBLIC "-//W3C//DTD SVG 20010904//EN"
 "http://www.w3.org/TR/2001/REC-SVG-20010904/DTD/svg10.dtd">
<svg version="1.0" xmlns="http://www.w3.org/2000/svg"
 width="512.000000pt" height="512.000000pt" viewBox="0 0 512.000000 512.000000"
 preserveAspectRatio="xMidYMid meet">

<g transform="translate(0.000000,512.000000) scale(0.100000,-0.100000)"
fill="#000000" stroke="none">
<path d="M3274 4222 c-102 -36 -189 -125 -219 -226 -22 -73 -22 -1756 0 -1859
23 -111 69 -192 160 -282 141 -141 242 -175 528 -175 l177 0 0 -53 c0 -73 -33
-195 -72 -270 -42 -81 -164 -203 -245 -245 -80 -42 -198 -72 -283 -72 -85 0
-203 30 -283 72 -81 42 -203 164 -245 245 -18 34 -41 96 -52 139 -19 74 -20
114 -20 1114 0 692 -4 1056 -11 1096 -17 98 -78 210 -155 288 -221 221 -574
219 -793 -4 -79 -80 -129 -180 -156 -314 -6 -27 -8 -28 -48 -22 -396 64 -914
4 -1181 -137 -82 -43 -164 -121 -193 -182 l-23 -50 0 -958 0 -959 28 -27 c48
-49 361 -147 587 -185 431 -73 870 -34 1290 115 78 28 130 52 148 70 l27 27 0
959 0 958 -23 50 c-48 102 -195 202 -380 257 l-78 23 6 45 c9 69 68 181 121
229 25 24 75 57 112 74 61 29 76 32 163 32 90 0 99 -2 171 -37 91 -45 147
-103 191 -196 l32 -67 5 -1095 c7 -1225 1 -1133 80 -1295 96 -195 278 -344
490 -402 90 -24 290 -24 380 1 214 58 394 205 490 401 49 100 69 175 77 288
l6 87 176 0 c201 0 276 13 378 61 94 44 216 167 262 263 63 131 62 115 59
1094 l-3 887 -28 57 c-35 72 -93 130 -165 165 l-57 28 -690 2 c-638 2 -694 1
-741 -15z m1422 -161 c47 -22 80 -59 95 -110 7 -24 9 -319 7 -911 l-3 -875
-23 -55 c-46 -113 -129 -196 -242 -242 -54 -23 -59 -23 -530 -23 -471 0 -476
0 -530 23 -113 46 -196 129 -242 242 l-23 55 -3 875 c-2 592 0 887 7 911 15
51 48 88 95 110 39 17 80 19 696 19 616 0 657 -2 696 -19z m-3178 -562 l82
-12 0 -247 0 -247 -97 -14 c-158 -22 -508 -17 -665 9 -261 45 -465 132 -505
218 -15 31 -15 37 0 68 48 103 320 203 637 236 110 11 442 5 548 -11z m388
-103 c82 -38 143 -84 161 -122 15 -31 15 -37 0 -68 -24 -52 -115 -109 -239
-152 l-68 -23 0 209 0 208 47 -14 c25 -8 70 -25 99 -38z m-1496 -448 c42 -20
110 -47 153 -59 l77 -23 0 -759 0 -759 -32 7 c-18 4 -89 26 -158 48 l-125 42
-3 773 c-1 426 1 772 5 770 5 -2 42 -20 83 -40z m1668 -730 l-3 -773 -65 -23
c-248 -89 -543 -142 -792 -142 l-98 0 0 55 c0 67 -29 105 -80 105 -50 0 -80
-38 -80 -101 0 -48 -1 -51 -22 -46 -13 3 -49 9 -80 12 l-58 7 0 760 0 760 43
-6 c181 -27 400 -32 587 -15 224 20 477 85 592 152 24 14 46 25 51 26 4 1 6
-347 5 -771z"/>
<path d="M3404 3908 c-12 -5 -27 -21 -33 -34 -8 -18 -11 -200 -11 -605 l0
-580 25 -24 24 -25 591 0 591 0 24 25 25 24 0 580 c0 404 -3 587 -11 604 -6
14 -22 30 -36 36 -32 15 -1159 14 -1189 -1z m1076 -628 l0 -480 -480 0 -480 0
0 480 0 480 480 0 480 0 0 -480z"/>
<path d="M3775 3585 c-54 -19 -120 -91 -135 -146 -15 -56 -6 -122 24 -173 13
-23 85 -101 159 -173 118 -117 138 -133 167 -133 29 0 49 16 167 133 74 72
146 150 159 173 53 90 40 190 -35 265 -71 72 -160 88 -244 45 l-47 -23 -47 23
c-53 27 -108 30 -168 9z m140 -185 c31 -27 56 -40 75 -40 19 0 44 13 75 40 52
45 76 49 105 20 36 -36 25 -58 -80 -164 l-100 -101 -100 101 c-105 106 -116
128 -80 164 29 29 53 25 105 -20z"/>
<path d="M3520 2467 c-49 -16 -133 -102 -148 -153 -28 -94 -8 -169 63 -239 31
-32 65 -55 91 -63 30 -9 164 -12 476 -12 501 0 499 0 571 80 63 70 81 146 55
232 -6 22 -31 62 -55 88 -72 81 -69 80 -577 79 -291 -1 -453 -5 -476 -12z
m240 -227 l0 -80 -95 0 c-88 0 -98 2 -120 25 -16 15 -25 36 -25 55 0 19 9 40
25 55 22 23 32 25 120 25 l95 0 0 -80z m320 0 l0 -80 -80 0 -80 0 0 80 0 80
80 0 80 0 0 -80z m375 55 c16 -15 25 -36 25 -55 0 -19 -9 -40 -25 -55 -22 -23
-32 -25 -120 -25 l-95 0 0 80 0 80 95 0 c88 0 98 -2 120 -25z"/>
<path d="M985 2615 c-22 -21 -25 -33 -25 -95 0 -62 3 -74 25 -95 15 -16 36
-25 55 -25 19 0 40 9 55 25 22 21 25 33 25 95 0 62 -3 74 -25 95 -15 16 -36
25 -55 25 -19 0 -40 -9 -55 -25z"/>
<path d="M985 2215 c-22 -21 -25 -33 -25 -95 0 -62 3 -74 25 -95 15 -16 36
-25 55 -25 19 0 40 9 55 25 22 21 25 33 25 95 0 62 -3 74 -25 95 -15 16 -36
25 -55 25 -19 0 -40 -9 -55 -25z"/>
<path d="M985 1815 c-22 -21 -25 -33 -25 -95 0 -62 3 -74 25 -95 15 -16 36
-25 55 -25 19 0 40 9 55 25 22 21 25 33 25 95 0 62 -3 74 -25 95 -15 16 -36
25 -55 25 -19 0 -40 -9 -55 -25z"/>
</g>
</svg>
